<?xml version="1.0" encoding="UTF-8" standalone="no"?>
<svg
   xmlns:dc="http://purl.org/dc/elements/1.1/"
   xmlns:cc="http://creativecommons.org/ns#"
   xmlns:rdf="http://www.w3.org/1999/02/22-rdf-syntax-ns#"
   xmlns:svg="http://www.w3.org/2000/svg"
   xmlns="http://www.w3.org/2000/svg"
   xmlns:sodipodi="http://sodipodi.sourceforge.net/DTD/sodipodi-0.dtd"
   xmlns:inkscape="http://www.inkscape.org/namespaces/inkscape"
   sodipodi:docname="logo.svg"
   inkscape:version="1.0 (4035a4fb49, 2020-05-01)"
   id="svg8"
   version="1.1"
   viewBox="0 0 210 297"
   height="297mm"
   width="210mm">
  <defs
     id="defs2">
    <clipPath
       clipPathUnits="userSpaceOnUse"
       id="clipPath26">
      <path
         d="m 182.151,232.312 c -0.143,-2.852 -0.41,-5.732 -0.79,-8.615 v 0 c -3.787,-29.024 -18.582,-58.992 -34.86,-68.878 v 0 c -2.635,-1.605 -5.45,-1.059 -7.29,1.992 v 0 c -12.563,20.798 -30.244,43.471 -52.893,58.817 v 0 c -2.416,1.642 -4.104,-2.156 -2.516,-5.584 v 0 c 17.494,-37.772 45.937,-70.207 37.126,-118.748 v 0 C 110.737,35.165 127.451,51.75 135.062,57.02 v 0 c 15.135,10.48 28.876,25.998 38.809,49.141 v 0 c 17.417,40.601 17.809,84.65 11.991,121.888 v 0 c -0.603,3.851 -1.794,4.635 -2.664,4.635 v 0 c -0.599,0 -1.047,-0.372 -1.047,-0.372"
         id="path24" />
    </clipPath>
    <linearGradient
       x1="0"
       y1="0"
       x2="1"
       y2="0"
       gradientUnits="userSpaceOnUse"
       gradientTransform="matrix(101.58154,23.292782,23.292782,-101.58154,100.89806,132.49205)"
       spreadMethod="pad"
       id="linearGradient38">
      <stop
         style="stop-opacity:1;stop-color:#ff0000"
         offset="0"
         id="stop32" />
      <stop
         style="stop-opacity:1;stop-color:#ff0000"
         offset="0.2"
         id="stop34" />
      <stop
         style="stop-opacity:1;stop-color:#b92025"
         offset="1"
         id="stop36" />
    </linearGradient>
    <clipPath
       clipPathUnits="userSpaceOnUse"
       id="clipPath48">
      <path
         d="m 127.361,212.21 c -1.812,-12.257 4.934,-24.7 15.07,-27.796 v 0 c 10.132,-3.098 19.825,4.33 21.638,16.586 v 0 c 1.812,12.259 -4.935,24.704 -15.069,27.798 v 0 c -1.558,0.477 -3.104,0.705 -4.614,0.705 v 0 c -8.316,-10e-4 -15.492,-6.919 -17.025,-17.293"
         id="path46" />
    </clipPath>
    <linearGradient
       x1="0"
       y1="0"
       x2="1"
       y2="0"
       gradientUnits="userSpaceOnUse"
       gradientTransform="matrix(37.475239,-8.6158562,-7.1899543,-31.277369,126.9771,210.91444)"
       spreadMethod="pad"
       id="linearGradient60">
      <stop
         style="stop-opacity:1;stop-color:#ff0000"
         offset="0"
         id="stop54" />
      <stop
         style="stop-opacity:1;stop-color:#ff0000"
         offset="0.2"
         id="stop56" />
      <stop
         style="stop-opacity:1;stop-color:#b92025"
         offset="1"
         id="stop58" />
    </linearGradient>
    <clipPath
       clipPathUnits="userSpaceOnUse"
       id="clipPath70">
      <path
         d="m 182.88,232.649 c 0,0 -3.973,-65.131 -18.912,-94.348 v 0 C 148.315,107.687 121.087,102.37 117.757,65.77 v 0 c -3.731,-41.022 44.833,15.324 45.17,19.949 v 0 c 0,0 25.646,33.011 26.626,100.792 v 0 c 0,0 -0.481,46.197 -6.321,46.193 v 0 c -0.115,0 -0.233,-0.018 -0.352,-0.055"
         id="path68" />
    </clipPath>
    <linearGradient
       x1="0"
       y1="0"
       x2="1"
       y2="0"
       gradientUnits="userSpaceOnUse"
       gradientTransform="matrix(115.9188,42.945713,42.945713,-115.9188,94.53009,119.64894)"
       spreadMethod="pad"
       id="linearGradient88">
      <stop
         style="stop-opacity:1;stop-color:#7d0033"
         offset="0"
         id="stop76" />
      <stop
         style="stop-opacity:1;stop-color:#7d0033"
         offset="0.0424242"
         id="stop78" />
      <stop
         style="stop-opacity:1;stop-color:#9f0033"
         offset="0.272727"
         id="stop80" />
      <stop
         style="stop-opacity:1;stop-color:#9f0033"
         offset="0.40480079"
         id="stop82" />
      <stop
         style="stop-opacity:1;stop-color:#cd001a"
         offset="0.915152"
         id="stop84" />
      <stop
         style="stop-opacity:1;stop-color:#ff0000"
         offset="1"
         id="stop86" />
    </linearGradient>
    <clipPath
       clipPathUnits="userSpaceOnUse"
       id="clipPath98">
      <path
         d="m 73.219,196.483 c 0.839,-2.336 1.588,-4.735 2.248,-7.176 v 0 c 6.671,-24.55 4.827,-53.541 -4.927,-66.918 v 0 c -1.577,-2.17 -4.017,-2.674 -6.514,-0.841 v 0 C 46.99,134.032 25.221,146.307 1.917,151.041 v 0 c -2.487,0.509 -2.572,-3.102 -0.151,-5.321 v 0 c 26.67,-24.452 60.338,-40.958 69.508,-82.848 v 0 c 10.6,-48.44 18.461,-29.544 22.805,-22.77 v 0 c 8.636,13.47 14.469,30.517 14.696,52.407 v 0 c 0.39,38.397 -14.029,73.868 -31.153,101.796 v 0 c -1.42,2.314 -2.484,2.922 -3.21,2.922 v 0 c -0.803,-0.001 -1.193,-0.744 -1.193,-0.744"
         id="path96" />
    </clipPath>
    <linearGradient
       x1="0"
       y1="0"
       x2="1"
       y2="0"
       gradientUnits="userSpaceOnUse"
       gradientTransform="matrix(73.703461,52.668621,52.668621,-73.703461,41.42355,89.221558)"
       spreadMethod="pad"
       id="linearGradient112">
      <stop
         style="stop-opacity:1;stop-color:#d9e021"
         offset="0"
         id="stop104" />
      <stop
         style="stop-opacity:1;stop-color:#8cc63f"
         offset="0.478788"
         id="stop106" />
      <stop
         style="stop-opacity:1;stop-color:#025f00"
         offset="0.976879"
         id="stop108" />
      <stop
         style="stop-opacity:1;stop-color:#025f00"
         offset="1"
         id="stop110" />
    </linearGradient>
    <clipPath
       clipPathUnits="userSpaceOnUse"
       id="clipPath122">
      <path
         d="M 47.799,182.575 C 38.626,181.672 33.34,172.468 35.987,162.028 v 0 c 2.647,-10.439 12.221,-18.164 21.388,-17.258 v 0 c 9.167,0.904 14.457,10.106 11.812,20.545 v 0 c -2.506,9.883 -11.218,17.333 -19.914,17.332 v 0 c -0.491,0 -0.984,-0.024 -1.474,-0.072"
         id="path120" />
    </clipPath>
    <linearGradient
       x1="0"
       y1="0"
       x2="1"
       y2="0"
       gradientUnits="userSpaceOnUse"
       gradientTransform="matrix(32.947594,5.622108,4.6948771,-27.498568,36.112759,160.86177)"
       spreadMethod="pad"
       id="linearGradient136">
      <stop
         style="stop-opacity:1;stop-color:#d9e021"
         offset="0"
         id="stop128" />
      <stop
         style="stop-opacity:1;stop-color:#8cc63f"
         offset="0.478788"
         id="stop130" />
      <stop
         style="stop-opacity:1;stop-color:#025f00"
         offset="0.976879"
         id="stop132" />
      <stop
         style="stop-opacity:1;stop-color:#025f00"
         offset="1"
         id="stop134" />
    </linearGradient>
    <clipPath
       clipPathUnits="userSpaceOnUse"
       id="clipPath146">
      <path
         d="m 73.691,196.999 c 0,0 18.6,-53.582 16.388,-82.019 v 0 C 87.761,85.182 67.697,71.809 77.269,41.334 v 0 c 10.728,-34.157 30.843,27.29 29.565,31.113 v 0 c 0,0 9.532,35.063 -12.356,89.768 v 0 c 0,0 -15.033,35.024 -20.139,35.02 v 0 c -0.238,0 -0.456,-0.076 -0.648,-0.236"
         id="path144" />
    </clipPath>
    <linearGradient
       x1="0"
       y1="0"
       x2="1"
       y2="0"
       gradientUnits="userSpaceOnUse"
       gradientTransform="matrix(78.631645,73.236938,73.236938,-78.631645,40.611366,76.785538)"
       spreadMethod="pad"
       id="linearGradient162">
      <stop
         style="stop-opacity:1;stop-color:#025f00"
         offset="0"
         id="stop152" />
      <stop
         style="stop-opacity:1;stop-color:#025f00"
         offset="0.0363636"
         id="stop154" />
      <stop
         style="stop-opacity:1;stop-color:#009245"
         offset="0.29697"
         id="stop156" />
      <stop
         style="stop-opacity:1;stop-color:#bad178"
         offset="0.933333"
         id="stop158" />
      <stop
         style="stop-opacity:1;stop-color:#bad178"
         offset="1"
         id="stop160" />
    </linearGradient>
    <clipPath
       clipPathUnits="userSpaceOnUse"
       id="clipPath172">
      <path
         d="m 199.353,182.762 c -5.539,-35.757 -0.584,-72.924 -30.343,-103.8 v 0 C 134.598,43.26 154.678,47.209 162.726,47.354 v 0 c 15.997,0.293 33.415,4.9 51.75,16.86 v 0 c 32.159,20.985 53.662,52.665 67.391,82.409 v 0 c 2.395,5.192 -0.63,4.872 -0.63,4.872 v 0 c -1.478,-1.995 -3.06,-3.949 -4.723,-5.853 v 0 c -16.721,-19.174 -41.862,-33.729 -58.401,-33.038 v 0 c -2.679,0.107 -4.454,1.858 -4.316,4.949 v 0 c 0.93,21.102 -0.939,46.024 -9.934,68.036 v 0 c -0.293,0.722 -0.785,1.04 -1.339,1.04 v 0 c -1.251,0 -2.823,-1.618 -3.171,-3.867"
         id="path170" />
    </clipPath>
    <linearGradient
       x1="0"
       y1="0"
       x2="1"
       y2="0"
       gradientUnits="userSpaceOnUse"
       gradientTransform="matrix(84.710159,-32.08334,-32.08334,-84.710159,174.36589,118.41596)"
       spreadMethod="pad"
       id="linearGradient190">
      <stop
         style="stop-opacity:1;stop-color:#fbb03b"
         offset="0"
         id="stop178" />
      <stop
         style="stop-opacity:1;stop-color:#fbb03b"
         offset="0.0121212"
         id="stop180" />
      <stop
         style="stop-opacity:1;stop-color:#ff7a33"
         offset="0.69697"
         id="stop182" />
      <stop
         style="stop-opacity:1;stop-color:#ff7a33"
         offset="0.74759734"
         id="stop184" />
      <stop
         style="stop-opacity:1;stop-color:#f15a24"
         offset="0.987879"
         id="stop186" />
      <stop
         style="stop-opacity:1;stop-color:#f15a24"
         offset="1"
         id="stop188" />
    </linearGradient>
    <clipPath
       clipPathUnits="userSpaceOnUse"
       id="clipPath200">
      <path
         d="m 231.911,163.346 c -7.213,-7.997 -8.328,-20.249 -2.486,-27.369 v 0 c 5.839,-7.125 16.429,-6.419 23.644,1.574 v 0 c 7.218,7.997 8.33,20.25 2.489,27.372 v 0 c -2.7,3.295 -6.415,4.915 -10.342,4.915 v 0 c -4.568,0 -9.425,-2.193 -13.305,-6.492"
         id="path198" />
    </clipPath>
    <linearGradient
       x1="0"
       y1="0"
       x2="1"
       y2="0"
       gradientUnits="userSpaceOnUse"
       gradientTransform="matrix(22.963551,-24.28635,-20.268501,-19.16514,231.00964,162.59315)"
       spreadMethod="pad"
       id="linearGradient218">
      <stop
         style="stop-opacity:1;stop-color:#fbb03b"
         offset="0"
         id="stop206" />
      <stop
         style="stop-opacity:1;stop-color:#fbb03b"
         offset="0.0121212"
         id="stop208" />
      <stop
         style="stop-opacity:1;stop-color:#ff7a33"
         offset="0.69697"
         id="stop210" />
      <stop
         style="stop-opacity:1;stop-color:#ff7a33"
         offset="0.74759734"
         id="stop212" />
      <stop
         style="stop-opacity:1;stop-color:#f15a24"
         offset="0.987879"
         id="stop214" />
      <stop
         style="stop-opacity:1;stop-color:#f15a24"
         offset="1"
         id="stop216" />
    </linearGradient>
    <clipPath
       clipPathUnits="userSpaceOnUse"
       id="clipPath228">
      <path
         d="M 222.794,92.236 C 196.719,77.629 174.46,86.898 154.42,62.022 v 0 c -22.461,-27.881 39.82,-10.511 42.29,-7.326 v 0 c 0,0 34.459,11.528 67.819,60.096 v 0 c 0,0 22.775,34.991 17.398,36.596 v 0 c 0,0 -34.25,-45.21 -59.133,-59.152"
         id="path226" />
    </clipPath>
    <linearGradient
       x1="0"
       y1="0"
       x2="1"
       y2="0"
       gradientUnits="userSpaceOnUse"
       gradientTransform="matrix(104.55688,-24.769127,-24.769127,-104.55688,163.56952,112.19199)"
       spreadMethod="pad"
       id="linearGradient246">
      <stop
         style="stop-opacity:1;stop-color:#ed1c24"
         offset="0"
         id="stop234" />
      <stop
         style="stop-opacity:1;stop-color:#ed1c24"
         offset="0.0363636"
         id="stop236" />
      <stop
         style="stop-opacity:1;stop-color:#f15a24"
         offset="0.466667"
         id="stop238" />
      <stop
         style="stop-opacity:1;stop-color:#ff7a33"
         offset="0.757576"
         id="stop240" />
      <stop
         style="stop-opacity:1;stop-color:#ff7a33"
         offset="0.79976542"
         id="stop242" />
      <stop
         style="stop-opacity:1;stop-color:#f7931e"
         offset="1"
         id="stop244" />
    </linearGradient>
    <clipPath
       clipPathUnits="userSpaceOnUse"
       id="clipPath256">
      <path
         d="M 0,232.704 H 282.79 V 0 H 0 Z"
         id="path254" />
    </clipPath>
  </defs>
  <sodipodi:namedview
     inkscape:window-maximized="0"
     inkscape:window-y="44"
     inkscape:window-x="9"
     inkscape:window-height="1040"
     inkscape:window-width="1417"
     showgrid="false"
     inkscape:document-rotation="0"
     inkscape:current-layer="layer1"
     inkscape:document-units="mm"
     inkscape:cy="331.42857"
     inkscape:cx="-34.285714"
     inkscape:zoom="0.35"
     inkscape:pageshadow="2"
     inkscape:pageopacity="0.0"
     borderopacity="1.0"
     bordercolor="#666666"
     pagecolor="#ffffff"
     id="base" />
  <metadata
     id="metadata5">
    <rdf:RDF>
      <cc:Work
         rdf:about="">
        <dc:format>image/svg+xml</dc:format>
        <dc:type
           rdf:resource="http://purl.org/dc/dcmitype/StillImage" />
        <dc:title></dc:title>
      </cc:Work>
    </rdf:RDF>
  </metadata>
  <g
     id="layer1"
     inkscape:groupmode="layer"
     inkscape:label="Layer 1">
    <g
       id="g18"
       inkscape:label="logo"
       transform="matrix(0.53990159,0,0,-0.49246575,27.98219,171.82616)">
      <g
         id="g20">
        <g
           id="g22"
           clip-path="url(#clipPath26)">
          <g
             id="g28">
            <g
               id="g30">
              <path
                 d="m 182.151,232.312 c -0.143,-2.852 -0.41,-5.732 -0.79,-8.615 v 0 c -3.787,-29.024 -18.582,-58.992 -34.86,-68.878 v 0 c -2.635,-1.605 -5.45,-1.059 -7.29,1.992 v 0 c -12.563,20.798 -30.244,43.471 -52.893,58.817 v 0 c -2.416,1.642 -4.104,-2.156 -2.516,-5.584 v 0 c 17.494,-37.772 45.937,-70.207 37.126,-118.748 v 0 C 110.737,35.165 127.451,51.75 135.062,57.02 v 0 c 15.135,10.48 28.876,25.998 38.809,49.141 v 0 c 17.417,40.601 17.809,84.65 11.991,121.888 v 0 c -0.603,3.851 -1.794,4.635 -2.664,4.635 v 0 c -0.599,0 -1.047,-0.372 -1.047,-0.372"
                 style="fill:url(#linearGradient38);stroke:none"
                 id="path40" />
            </g>
          </g>
        </g>
      </g>
      <g
         id="g42">
        <g
           id="g44"
           clip-path="url(#clipPath48)">
          <g
             id="g50">
            <g
               id="g52">
              <path
                 d="m 127.361,212.21 c -1.812,-12.257 4.934,-24.7 15.07,-27.796 v 0 c 10.132,-3.098 19.825,4.33 21.638,16.586 v 0 c 1.812,12.259 -4.935,24.704 -15.069,27.798 v 0 c -1.558,0.477 -3.104,0.705 -4.614,0.705 v 0 c -8.316,-10e-4 -15.492,-6.919 -17.025,-17.293"
                 style="fill:url(#linearGradient60);stroke:none"
                 id="path62" />
            </g>
          </g>
        </g>
      </g>
      <g
         id="g64">
        <g
           id="g66"
           clip-path="url(#clipPath70)">
          <g
             id="g72">
            <g
               id="g74">
              <path
                 d="m 182.88,232.649 c 0,0 -3.973,-65.131 -18.912,-94.348 v 0 C 148.315,107.687 121.087,102.37 117.757,65.77 v 0 c -3.731,-41.022 44.833,15.324 45.17,19.949 v 0 c 0,0 25.646,33.011 26.626,100.792 v 0 c 0,0 -0.481,46.197 -6.321,46.193 v 0 c -0.115,0 -0.233,-0.018 -0.352,-0.055"
                 style="fill:url(#linearGradient88);stroke:none"
                 id="path90" />
            </g>
          </g>
        </g>
      </g>
      <g
         id="g92">
        <g
           id="g94"
           clip-path="url(#clipPath98)">
          <g
             id="g100">
            <g
               id="g102">
              <path
                 d="m 73.219,196.483 c 0.839,-2.336 1.588,-4.735 2.248,-7.176 v 0 c 6.671,-24.55 4.827,-53.541 -4.927,-66.918 v 0 c -1.577,-2.17 -4.017,-2.674 -6.514,-0.841 v 0 C 46.99,134.032 25.221,146.307 1.917,151.041 v 0 c -2.487,0.509 -2.572,-3.102 -0.151,-5.321 v 0 c 26.67,-24.452 60.338,-40.958 69.508,-82.848 v 0 c 10.6,-48.44 18.461,-29.544 22.805,-22.77 v 0 c 8.636,13.47 14.469,30.517 14.696,52.407 v 0 c 0.39,38.397 -14.029,73.868 -31.153,101.796 v 0 c -1.42,2.314 -2.484,2.922 -3.21,2.922 v 0 c -0.803,-0.001 -1.193,-0.744 -1.193,-0.744"
                 style="fill:url(#linearGradient112);stroke:none"
                 id="path114" />
            </g>
          </g>
        </g>
      </g>
      <g
         id="g116">
        <g
           id="g118"
           clip-path="url(#clipPath122)">
          <g
             id="g124">
            <g
               id="g126">
              <path
                 d="M 47.799,182.575 C 38.626,181.672 33.34,172.468 35.987,162.028 v 0 c 2.647,-10.439 12.221,-18.164 21.388,-17.258 v 0 c 9.167,0.904 14.457,10.106 11.812,20.545 v 0 c -2.506,9.883 -11.218,17.333 -19.914,17.332 v 0 c -0.491,0 -0.984,-0.024 -1.474,-0.072"
                 style="fill:url(#linearGradient136);stroke:none"
                 id="path138" />
            </g>
          </g>
        </g>
      </g>
      <g
         id="g140">
        <g
           id="g142"
           clip-path="url(#clipPath146)">
          <g
             id="g148">
            <g
               id="g150">
              <path
                 d="m 73.691,196.999 c 0,0 18.6,-53.582 16.388,-82.019 v 0 C 87.761,85.182 67.697,71.809 77.269,41.334 v 0 c 10.728,-34.157 30.843,27.29 29.565,31.113 v 0 c 0,0 9.532,35.063 -12.356,89.768 v 0 c 0,0 -15.033,35.024 -20.139,35.02 v 0 c -0.238,0 -0.456,-0.076 -0.648,-0.236"
                 style="fill:url(#linearGradient162);stroke:none"
                 id="path164" />
            </g>
          </g>
        </g>
      </g>
      <g
         id="g166">
        <g
           id="g168"
           clip-path="url(#clipPath172)">
          <g
             id="g174">
            <g
               id="g176">
              <path
                 d="m 199.353,182.762 c -5.539,-35.757 -0.584,-72.924 -30.343,-103.8 v 0 C 134.598,43.26 154.678,47.209 162.726,47.354 v 0 c 15.997,0.293 33.415,4.9 51.75,16.86 v 0 c 32.159,20.985 53.662,52.665 67.391,82.409 v 0 c 2.395,5.192 -0.63,4.872 -0.63,4.872 v 0 c -1.478,-1.995 -3.06,-3.949 -4.723,-5.853 v 0 c -16.721,-19.174 -41.862,-33.729 -58.401,-33.038 v 0 c -2.679,0.107 -4.454,1.858 -4.316,4.949 v 0 c 0.93,21.102 -0.939,46.024 -9.934,68.036 v 0 c -0.293,0.722 -0.785,1.04 -1.339,1.04 v 0 c -1.251,0 -2.823,-1.618 -3.171,-3.867"
                 style="fill:url(#linearGradient190);stroke:none"
                 id="path192" />
            </g>
          </g>
        </g>
      </g>
      <g
         id="g194">
        <g
           id="g196"
           clip-path="url(#clipPath200)">
          <g
             id="g202">
            <g
               id="g204">
              <path
                 d="m 231.911,163.346 c -7.213,-7.997 -8.328,-20.249 -2.486,-27.369 v 0 c 5.839,-7.125 16.429,-6.419 23.644,1.574 v 0 c 7.218,7.997 8.33,20.25 2.489,27.372 v 0 c -2.7,3.295 -6.415,4.915 -10.342,4.915 v 0 c -4.568,0 -9.425,-2.193 -13.305,-6.492"
                 style="fill:url(#linearGradient218);stroke:none"
                 id="path220" />
            </g>
          </g>
        </g>
      </g>
      <g
         id="g222">
        <g
           id="g224"
           clip-path="url(#clipPath228)">
          <g
             id="g230">
            <g
               id="g232">
              <path
                 d="M 222.794,92.236 C 196.719,77.629 174.46,86.898 154.42,62.022 v 0 c -22.461,-27.881 39.82,-10.511 42.29,-7.326 v 0 c 0,0 34.459,11.528 67.819,60.096 v 0 c 0,0 22.775,34.991 17.398,36.596 v 0 c 0,0 -34.25,-45.21 -59.133,-59.152"
                 style="fill:url(#linearGradient246);stroke:none"
                 id="path248" />
            </g>
          </g>
        </g>
      </g>
      <g
         id="g250">
        <g
           id="g252"
           clip-path="url(#clipPath256)">
          <g
             id="g258"
             transform="translate(145.3118,24.1777)">
            <path
               d="M 0,0 C 47.466,0 91.436,-6.843 127.469,-18.487 99.018,8.918 50.204,27 -5.248,27 -64.455,27 -116.099,6.39 -143.463,-24.178 -104.835,-9.104 -54.744,0 0,0"
               style="fill:#006838;fill-opacity:1;fill-rule:nonzero;stroke:none"
               id="path260" />
          </g>
        </g>
      </g>
    </g>
  </g>
</svg>
